#!OML:ASF F:\VICON\USERDATA\INSTALL\rory3\rory3.ASF
:FULLY-SPECIFIED
:DEGREES
96
root 0.14408232311440955 17.74107051675426 50.150700393345495 -4.442771725599327 -5.518234530221821 -0.3504078002234208
lfemur -3.7503363788335387 -2.58297200311845 -22.694664408261183
ltibia 16.917616634266796
lfoot -5.570814586890737 -4.480317728823711
ltoes -6.724507464230056
rfemur -16.579364477877792 2.4729774873369017 25.1763665333622
rtibia 32.50525029859733
rfoot 0.7658596821280153 -14.227703183617077
rtoes 7.359327478956763
lowerback 11.631817113703143 0.4178481162811383 0.7528418136496617
upperback 0.3063254077120344 0.7751103293510877 1.3621098141994599
thorax -5.151457526616726 0.3666447338803146 0.7606602577338373
lowerneck -15.899526275548693 -2.721593779268082 -3.5973382585453777
upperneck 22.43115144025566 -3.1656201279663074 1.2056960294774421
head 9.617983180682096 -1.6234336827189375 0.9971388827093846
lclavicle 1.4581252385321765e-16 2.360941894997024e-16
lhumerus -29.447932825640695 4.724741008616648 79.20786947077156
lradius 19.051153383653602
lwrist 4.8192632178748225
lhand -28.182918481771573 20.51400409218745
lfingers 7.12502
lthumb -1.5319705525040408 50.805021974064616
rclavicle 1.48085239693887e-16 2.378554485390249e-16
rhumerus -28.566023955137492 -19.404405571869585 -77.91152891335786
rradius 19.48188773182113
rwrist 10.807730416452122
rhand -17.85327506380535 22.97369857799454
rfingers 7.12502
rthumb 8.073986764438361 -7.29018514390752
97
root 0.10996511732140121 17.758702453688812 50.399423495041106 -4.333701825713467 -5.275969763997832 -0.30515672293879303
lfemur -0.8671268312525608 -2.4131852554033317 -22.97658941071487
ltibia 15.54148590048603
lfoot -2.4953730449489138 -7.093360021725535
ltoes -8.72425451637492
rfemur -16.318451023835173 3.607623185262758 24.839168733862586
rtibia 29.48474023452148
rfoot -0.2659021376627031 -12.77841746269386
rtoes 5.554650996496003
lowerback 11.473359251816877 0.3411200384264091 0.6829842729219563
upperback 0.3282908453160553 0.6456396766426 1.3232237763583548
thorax -5.103735494104609 0.3116931681819577 0.8953568458823145
lowerneck -15.888960267406535 -2.7128194757214468 -3.661847618048157
upperneck 22.409698042579894 -3.143032643494104 1.1767672393720428
head 9.60600124299977 -1.6184909948213155 0.9950303502733625
lclavicle 1.4536637131638846e-16 2.3574914080794763e-16
lhumerus -28.29981428426068 3.415975772929695 79.22852998467259
lradius 20.25274053647459
lwrist 5.340983500691123
lhand -28.551306769123183 20.484449406143366
lfingers 7.12502
lthumb -1.8560310734888754 50.91624365766749
rclavicle 1.482045343684538e-16 2.3794723219263308e-16
rhumerus -28.83852425846858 -19.289843970187786 -77.61803900191781
rradius 19.428647426677653
rwrist 10.557305040217916
rhand -17.859565820874927 22.94758851244497
rfingers 7.12502
rthumb 8.023296788783204 -7.210328952760927
98
root 0.06708555926700777 17.777886577074497 50.55042410636233 -4.248669112433357 -4.813512022345779 -0.3349360465230895
lfemur 1.7245433364051976 -2.4214722034115477 -23.097134817431716
ltibia 14.186287470473083
lfoot 0.9026458310254393 -10.292044979890123
ltoes -9.329563707642222
rfemur -15.744611719151631 4.501301522515609 24.460129588063413
rtibia 26.410047266343824
rfoot -1.519005244049076 -11.736154096344467
rtoes 3.8664123452711223
lowerback 11.199103401828989 0.19478057062537585 0.7175928539772518
upperback 0.3258760907011303 0.4286152510481077 1.2882125887682974
thorax -5.024996414917326 0.1866619468887146 0.9844989587984592
lowerneck -15.904155494419916 -2.705124014283647 -3.7287866374365515
upperneck 22.388694337086285 -3.127812508762873 1.15842069905587
head 9.59265336182187 -1.613470393748754 0.9923718605644412
lclavicle 1.4560869265540148e-16 2.3593466586695066e-16
lhumerus -27.500597993263874 2.5190180629224583 79.20131051134294
lradius 21.595385054535317
lwrist 5.763519657556946
lhand -28.70784916508155 20.53338968313451
lfingers 7.12502
lthumb -1.9721846025733007 51.073343486354204
rclavicle 1.480015735262315e-16 2.377911744014481e-16
rhumerus -29.069117853141385 -19.378393823647002 -77.24396401559734
rradius 19.3659202013314
rwrist 10.612772831140663
rhand -17.843052758331932 22.81783252522447
rfingers 7.12502
rthumb 7.981746739085457 -7.214694227244991
99
root 0.021475046548873167 17.780134369069295 50.86710395632238 -4.245079657763037 -4.463934419753222 -0.5782348651459848
lfemur 3.93246941544065 -2.4212988260162955 -22.909852869314467
ltibia 13.643289271098375
lfoot 3.335456688086002 -14.025594531067966
ltoes -8.273479824543612
rfemur -15.140186695316599 5.301949238929742 24.36828514863033
rtibia 23.96236559355148
rfoot -3.2044136157680168 -10.912367771945991
rtoes 2.617130558367161
lowerback 11.041663951786683 0.10310630596677642 0.8968720358625627
upperback 0.3151079427672322 0.32967551309581455 1.2821743827714078
thorax -5.029569559549619 0.1300290196971488 1.016119690098905
lowerneck -15.922348009825388 -2.6983843397317577 -3.7734803935457766
upperneck 22.40208392049916 -3.1087970876074746 1.0658324015886167
head 9.598983695938847 -1.6070730789811152 0.9607412696155254
lclavicle 1.4558103093540918e-16 2.3591245810782494e-16
lhumerus -26.903471259626993 1.8337109330203147 79.18716454051244
lradius 23.220666486698203
lwrist 6.368221311075338
lhand -28.799182945113692 20.480697076695478
lfingers 7.12502
lthumb -2.125193487591163 50.923139089455255
rclavicle 1.4801387295179586e-16 2.3780066246323363e-16
rhumerus -29.26950572557078 -19.54315986702533 -76.84618178325871
rradius 19.351939789989885
rwrist 10.391747369842143
rhand -17.87174560624698 22.738405440113503
rfingers 7.12502
rthumb 7.886846332344783 -7.202022933207666
100
root -0.019453701312883542 17.794889603963686 51.11357517984803 -4.28877547200753 -4.093927711169849 -0.8141408651387556
lfemur 5.114823700303731 -2.799839862952499 -22.604260370691826
ltibia 14.57595302414743
lfoot 5.4983654316237525 -16.14461083437474
ltoes -5.858402981217907
rfemur -14.377207037281794 5.868468028499484 24.338498968102943
rtibia 22.01200961702813
rfoot -4.937376984522209 -10.048814576107157
rtoes 1.6101422105893735
lowerback 10.914357659470863 0.028655228154832735 1.0394341592747396
upperback 0.31196272436389083 0.21749661598430658 1.2742629902895246
thorax -5.026824611723989 0.06752560300225127 1.0442160545060837
lowerneck -15.935142662791472 -2.693521414931447 -3.818532520377424
upperneck 22.38295280253333 -3.093445000235064 1.002038440710772
head 9.58568199566416 -1.5991237809225232 0.945601715977955
lclavicle 1.4595052184646785e-16 2.361960201092937e-16
lhumerus -26.59368679557115 1.4708488700745521 79.21004920051617
lradius 24.893449569899552
lwrist 6.749289032726368
lhand -28.987688572998874 20.496262451114738
lfingers 7.12502
lthumb -2.3602409151330814 50.79776201267577
rclavicle 1.4843424856220654e-16 2.381239358545096e-16
rhumerus -29.321086689502078 -19.647210035209945 -76.46964317260601
rradius 19.36019350263612
rwrist 10.080340827871957
rhand -17.89576211526388 22.772298327495783
rfingers 7.12502
rthumb 7.805641727047458 -7.166327022519217
